# xmcd CD database file
# Copyright (C) 1993-1998 Ti Kan
#
# Track frame offsets:
#	150
#	13433
#	30055
#	40693
#	52555
#	66170
#	78795
#	95798
#	113315
#	128880
#	144565
#	159448
#	174323
#	188173
#	202573
#	222558
#	238858
#	258018
#	272013
#	282363
#	296570
#
# Disc length: 4192 seconds
#
# Revision: 2
# Processed by: cddbd v1.4b41PL1 Copyright (c) Steve Scherf et al.
# Submitted via: CDValet v3.31 - Copyright (c) 1997 Greg Leichner
#
DISCID=18105e15
DTITLE=Beto Guedes - O Talento de Beto Guedes
DYEAR=1900
DGENRE=
TTITLE0=Sol de Primavera
TTITLE1=Nascente
TTITLE2=Cruzada
TTITLE3=Gabriel
TTITLE4=Maria Solidaria
TTITLE5=Pela Claridade da Nossa Casa
TTITLE6=Feira Moderna
TTITLE7=Amor de Indio
TTITLE8=Lumiar
TTITLE9=O Sal da Terra
TTITLE10=Paisagem da Janela
TTITLE11=No Ceu, Com Diamantes
TTITLE12=Roupa Nova
TTITLE13=Tesouro da Juventude
TTITLE14=Luz e Misterio
TTITLE15=Veveco, Panelas e Canelas
TTITLE16=Contos da Lua Vaga
TTITLE17=Viagem das Maos
TTITLE18=Quando Te Vi (Till There Was You)
TTITLE19=Cancao do Novo Mundo
TTITLE20=Casinha de Palha
EXTD=
EXTT0=
EXTT1=
EXTT2=
EXTT3=
EXTT4=
EXTT5=
EXTT6=
EXTT7=
EXTT8=
EXTT9=
EXTT10=
EXTT11=
EXTT12=
EXTT13=
EXTT14=
EXTT15=
EXTT16=
EXTT17=
EXTT18=
EXTT19=
EXTT20=
PLAYORDER=
